<svg width="256" height="256" viewBox="0 0 256 256" fill="none" xmlns="http://www.w3.org/2000/svg">
<g clip-path="url(#clip0)">
<rect width="256" height="256" fill="#343A40"/>
<g filter="url(#filter0_d)">
<g clip-path="url(#clip1)">
<path d="M217.634 228.984C196.994 243.864 172.994 251.304 145.634 251.304C128.834 251.304 113.618 248.712 99.9864 243.528C86.4504 238.248 74.8824 230.952 65.2824 221.64C55.6824 212.232 48.2904 201.048 43.1064 188.088C37.9224 175.128 35.3304 160.872 35.3304 145.32C35.3304 129.672 37.8264 115.368 42.8184 102.408C47.8104 89.352 54.9624 78.168 64.2744 68.856C73.5864 59.448 84.8184 52.2 97.9704 47.112C111.122 41.928 125.906 39.336 142.322 39.336C150.674 39.336 158.402 40.008 165.506 41.352C172.706 42.6 179.378 44.376 185.522 46.68C191.666 48.984 197.33 51.768 202.514 55.032C207.698 58.296 212.45 61.944 216.77 65.976L207.122 81.384C205.586 83.784 203.618 85.272 201.218 85.848C198.818 86.424 196.226 85.848 193.442 84.12C190.658 82.488 187.682 80.76 184.514 78.936C181.442 77.112 177.89 75.432 173.858 73.896C169.826 72.264 165.17 70.968 159.89 70.008C154.61 68.952 148.37 68.424 141.17 68.424C130.226 68.424 120.338 70.248 111.506 73.896C102.77 77.448 95.2824 82.584 89.0424 89.304C82.8024 95.928 78.0024 103.992 74.6424 113.496C71.2824 123 69.6024 133.608 69.6024 145.32C69.6024 157.704 71.3784 168.792 74.9304 178.584C78.4824 188.28 83.5224 196.536 90.0504 203.352C96.5784 210.072 104.45 215.208 113.666 218.76C122.978 222.312 133.346 224.088 144.77 224.088C153.314 224.088 160.898 223.176 167.522 221.352C174.242 219.528 180.818 216.984 187.25 213.72V172.536H158.306C156.098 172.536 154.37 171.96 153.122 170.808C151.874 169.56 151.25 167.976 151.25 166.056V146.904H217.634V228.984Z" fill="white"/>
<path d="M91.1503 112.08H94.6783C95.0383 112.08 95.3383 112.17 95.5783 112.35C95.8303 112.518 95.9983 112.752 96.0823 113.052L100.942 129.666C101.038 130.026 101.122 130.416 101.194 130.836C101.278 131.244 101.362 131.676 101.446 132.132C101.542 131.676 101.638 131.238 101.734 130.818C101.842 130.398 101.956 130.014 102.076 129.666L107.638 113.052C107.722 112.812 107.89 112.59 108.142 112.386C108.394 112.182 108.694 112.08 109.042 112.08H110.266C110.638 112.08 110.938 112.176 111.166 112.368C111.394 112.548 111.568 112.776 111.688 113.052L117.232 129.666C117.352 130.014 117.46 130.392 117.556 130.8C117.652 131.196 117.748 131.622 117.844 132.078C117.928 131.634 118.006 131.208 118.078 130.8C118.162 130.392 118.252 130.014 118.348 129.666L123.19 113.052C123.262 112.788 123.424 112.56 123.676 112.368C123.94 112.176 124.246 112.08 124.594 112.08H127.888L119.824 138H116.026L109.942 119.388C109.87 119.184 109.798 118.962 109.726 118.722C109.666 118.482 109.606 118.224 109.546 117.948C109.486 118.224 109.42 118.482 109.348 118.722C109.276 118.962 109.21 119.184 109.15 119.388L103.012 138H99.2143L91.1503 112.08ZM134.708 119.64V138H130.838V119.64H134.708ZM135.356 114.096C135.356 114.444 135.284 114.774 135.14 115.086C135.008 115.398 134.822 115.674 134.582 115.914C134.342 116.142 134.06 116.328 133.736 116.472C133.424 116.604 133.088 116.67 132.728 116.67C132.38 116.67 132.05 116.604 131.738 116.472C131.438 116.328 131.174 116.142 130.946 115.914C130.718 115.674 130.532 115.398 130.388 115.086C130.256 114.774 130.19 114.444 130.19 114.096C130.19 113.736 130.256 113.4 130.388 113.088C130.532 112.776 130.718 112.506 130.946 112.278C131.174 112.038 131.438 111.852 131.738 111.72C132.05 111.576 132.38 111.504 132.728 111.504C133.088 111.504 133.424 111.576 133.736 111.72C134.06 111.852 134.342 112.038 134.582 112.278C134.822 112.506 135.008 112.776 135.14 113.088C135.284 113.4 135.356 113.736 135.356 114.096ZM143.513 111.36V138H139.643V111.36H143.513ZM161.268 123.24C161.148 123.396 161.034 123.516 160.926 123.6C160.818 123.684 160.662 123.726 160.458 123.726C160.254 123.726 160.038 123.654 159.81 123.51C159.594 123.366 159.33 123.21 159.018 123.042C158.718 122.862 158.352 122.7 157.92 122.556C157.488 122.412 156.948 122.34 156.3 122.34C155.46 122.34 154.722 122.49 154.086 122.79C153.462 123.09 152.934 123.522 152.502 124.086C152.082 124.638 151.764 125.316 151.548 126.12C151.344 126.912 151.242 127.806 151.242 128.802C151.242 129.834 151.356 130.752 151.584 131.556C151.812 132.36 152.136 133.038 152.556 133.59C152.988 134.142 153.504 134.562 154.104 134.85C154.716 135.138 155.4 135.282 156.156 135.282C156.9 135.282 157.506 135.192 157.974 135.012C158.442 134.832 158.832 134.634 159.144 134.418C159.456 134.202 159.72 134.004 159.936 133.824C160.164 133.644 160.404 133.554 160.656 133.554C160.968 133.554 161.208 133.674 161.376 133.914L162.474 135.336C162.03 135.876 161.538 136.332 160.998 136.704C160.458 137.076 159.888 137.382 159.288 137.622C158.688 137.85 158.064 138.012 157.416 138.108C156.768 138.216 156.114 138.27 155.454 138.27C154.314 138.27 153.246 138.06 152.25 137.64C151.266 137.208 150.402 136.59 149.658 135.786C148.926 134.97 148.344 133.98 147.912 132.816C147.492 131.64 147.282 130.302 147.282 128.802C147.282 127.446 147.474 126.192 147.858 125.04C148.242 123.876 148.8 122.874 149.532 122.034C150.276 121.194 151.194 120.54 152.286 120.072C153.378 119.592 154.638 119.352 156.066 119.352C157.398 119.352 158.568 119.568 159.576 120C160.596 120.432 161.502 121.044 162.294 121.836L161.268 123.24ZM178.529 121.26C178.529 121.536 178.481 121.806 178.385 122.07C178.301 122.334 178.175 122.556 178.007 122.736L168.701 134.994H178.223V138H164.219V136.38C164.219 136.2 164.261 135.984 164.345 135.732C164.429 135.48 164.555 135.24 164.723 135.012L174.083 122.646H164.759V119.64H178.529V121.26ZM188.178 143.22C188.046 143.496 187.884 143.712 187.692 143.868C187.512 144.024 187.23 144.102 186.846 144.102H183.984L187.368 136.758L179.88 119.64H183.246C183.57 119.64 183.816 119.718 183.984 119.874C184.164 120.018 184.296 120.192 184.38 120.396L188.754 130.818C188.97 131.418 189.15 132.018 189.294 132.618C189.39 132.306 189.486 132 189.582 131.7C189.69 131.4 189.804 131.1 189.924 130.8L194.118 120.396C194.202 120.18 194.34 120 194.532 119.856C194.736 119.712 194.958 119.64 195.198 119.64H198.294L188.178 143.22ZM204.683 111.36V126.804H205.511C205.775 126.804 205.991 126.768 206.159 126.696C206.327 126.624 206.501 126.474 206.681 126.246L211.829 120.36C212.009 120.12 212.207 119.94 212.423 119.82C212.639 119.7 212.915 119.64 213.251 119.64H216.761L210.569 126.624C210.209 127.092 209.813 127.464 209.381 127.74C209.621 127.908 209.831 128.1 210.011 128.316C210.191 128.52 210.365 128.754 210.533 129.018L217.139 138H213.683C213.371 138 213.101 137.952 212.873 137.856C212.657 137.748 212.465 137.556 212.297 137.28L206.987 130.08C206.807 129.804 206.627 129.63 206.447 129.558C206.267 129.474 205.997 129.432 205.637 129.432H204.683V138H200.813V111.36H204.683Z" fill="white"/>
</g>
</g>
</g>
<defs>
<filter id="filter0_d" x="19" y="-21" width="250" height="245" filterUnits="userSpaceOnUse" color-interpolation-filters="sRGB">
<feFlood flood-opacity="0" result="BackgroundImageFix"/>
<feColorMatrix in="SourceAlpha" type="matrix" values="0 0 0 0 0 0 0 0 0 0 0 0 0 0 0 0 0 0 127 0"/>
<feOffset dy="4"/>
<feGaussianBlur stdDeviation="2"/>
<feColorMatrix type="matrix" values="0 0 0 0 0 0 0 0 0 0 0 0 0 0 0 0 0 0 0.25 0"/>
<feBlend mode="normal" in2="BackgroundImageFix" result="effect1_dropShadow"/>
<feBlend mode="normal" in="SourceGraphic" in2="effect1_dropShadow" result="shape"/>
</filter>
<clipPath id="clip0">
<rect width="256" height="256" fill="white"/>
</clipPath>
<clipPath id="clip1">
<path d="M23 79C23 23.7715 67.7715 -21 123 -21H165C220.228 -21 265 23.7715 265 79V116C265 171.228 220.228 216 165 216H123C67.7715 216 23 171.228 23 116V79Z" fill="white"/>
</clipPath>
</defs>
</svg>
