<svg width="120" height="120" viewBox="0 0 120 120" fill="none" xmlns="http://www.w3.org/2000/svg">
<g clip-path="url(#clip0)">
<rect width="120" height="120" fill="white"/>
<g filter="url(#filter0_d)">
<g clip-path="url(#clip1)">
<path d="M103.533 110.784C93.087 118.315 80.94 122.08 67.0925 122.08C58.5897 122.08 50.8885 120.769 43.989 118.145C37.1382 115.472 31.2833 111.78 26.4246 107.067C21.5658 102.305 17.8245 96.6447 15.2008 90.0854C12.5771 83.526 11.2652 76.3107 11.2652 68.4395C11.2652 60.5197 12.5285 53.2801 15.055 46.7208C17.5816 40.1128 21.2014 34.4524 25.9144 29.7394C30.6274 24.9778 36.3122 21.3094 42.9687 18.7342C49.6252 16.1105 57.1077 14.7986 65.4162 14.7986C69.6434 14.7986 73.5547 15.1387 77.1502 15.819C80.7943 16.4506 84.1711 17.3495 87.2807 18.5156C90.3904 19.6817 93.257 21.0907 95.8808 22.7427C98.5045 24.3947 100.91 26.241 103.096 28.2817L98.213 36.0801C97.4356 37.2948 96.4395 38.0479 95.2248 38.3394C94.0101 38.6309 92.6983 38.3394 91.2892 37.4648C89.8802 36.6388 88.374 35.7642 86.7706 34.8411C85.2158 33.9179 83.418 33.0676 81.3773 32.2902C79.3366 31.4642 76.9801 30.8083 74.3078 30.3224C71.6355 29.7879 68.4773 29.5207 64.8332 29.5207C59.2942 29.5207 54.2896 30.4439 49.8196 32.2902C45.3981 34.088 41.6082 36.6874 38.45 40.0885C35.2918 43.4411 32.8624 47.5225 31.1619 52.3327C29.4613 57.1429 28.611 62.5118 28.611 68.4395C28.611 74.7073 29.5099 80.3192 31.3076 85.2752C33.1054 90.1825 35.6562 94.3611 38.9602 97.8108C42.2642 101.212 46.2484 103.811 50.9128 105.609C55.6258 107.407 60.8733 108.306 66.6552 108.306C70.9795 108.306 74.818 107.844 78.1705 106.921C81.5717 105.998 84.8999 104.71 88.1553 103.058V82.2141H73.5061C72.3886 82.2141 71.514 81.9226 70.8824 81.3396C70.2507 80.7079 69.9349 79.9062 69.9349 78.9345V69.2412H103.533V110.784Z" fill="#333333"/>
<path d="M39.5169 51.6405H41.3025C41.4847 51.6405 41.6365 51.686 41.758 51.7771C41.8856 51.8622 41.9706 51.9806 42.0131 52.1324L44.4729 60.5412C44.5214 60.7234 44.564 60.9207 44.6004 61.1333C44.6429 61.3398 44.6854 61.5585 44.7279 61.7893C44.7765 61.5585 44.8251 61.3368 44.8737 61.1242C44.9284 60.9116 44.9861 60.7173 45.0468 60.5412L47.8619 52.1324C47.9044 52.011 47.9894 51.8986 48.1169 51.7954C48.2445 51.6921 48.3963 51.6405 48.5724 51.6405H49.1919C49.3802 51.6405 49.5321 51.6891 49.6475 51.7863C49.7628 51.8774 49.8509 51.9927 49.9116 52.1324L52.7176 60.5412C52.7783 60.7173 52.833 60.9086 52.8816 61.1151C52.9302 61.3155 52.9787 61.5311 53.0273 61.7619C53.0699 61.5372 53.1093 61.3216 53.1458 61.1151C53.1883 60.9086 53.2338 60.7173 53.2824 60.5412L55.7331 52.1324C55.7695 51.9988 55.8515 51.8834 55.979 51.7863C56.1127 51.6891 56.2675 51.6405 56.4437 51.6405H58.1108L54.0295 64.7592H52.1072L49.028 55.3392C48.9915 55.236 48.9551 55.1236 48.9186 55.0022C48.8883 54.8807 48.8579 54.7501 48.8275 54.6104C48.7972 54.7501 48.7638 54.8807 48.7273 55.0022C48.6909 55.1236 48.6575 55.236 48.6271 55.3392L45.5205 64.7592H43.5983L39.5169 51.6405ZM61.5626 55.4668V64.7592H59.6039V55.4668H61.5626ZM61.8906 52.6608C61.8906 52.837 61.8541 53.004 61.7812 53.1619C61.7144 53.3198 61.6203 53.4595 61.4988 53.581C61.3774 53.6964 61.2346 53.7905 61.0706 53.8634C60.9127 53.9302 60.7427 53.9636 60.5605 53.9636C60.3843 53.9636 60.2173 53.9302 60.0594 53.8634C59.9076 53.7905 59.774 53.6964 59.6586 53.581C59.5432 53.4595 59.449 53.3198 59.3761 53.1619C59.3093 53.004 59.2759 52.837 59.2759 52.6608C59.2759 52.4786 59.3093 52.3086 59.3761 52.1507C59.449 51.9927 59.5432 51.8561 59.6586 51.7407C59.774 51.6192 59.9076 51.5251 60.0594 51.4583C60.2173 51.3854 60.3843 51.349 60.5605 51.349C60.7427 51.349 60.9127 51.3854 61.0706 51.4583C61.2346 51.5251 61.3774 51.6192 61.4988 51.7407C61.6203 51.8561 61.7144 51.9927 61.7812 52.1507C61.8541 52.3086 61.8906 52.4786 61.8906 52.6608ZM66.0188 51.2761V64.7592H64.0601V51.2761H66.0188ZM75.0048 57.2888C74.9441 57.3678 74.8864 57.4285 74.8318 57.471C74.7771 57.5135 74.6981 57.5348 74.5949 57.5348C74.4916 57.5348 74.3823 57.4983 74.2669 57.4255C74.1576 57.3526 74.024 57.2736 73.8661 57.1886C73.7142 57.0975 73.529 57.0155 73.3104 56.9426C73.0917 56.8697 72.8184 56.8333 72.4904 56.8333C72.0653 56.8333 71.6918 56.9092 71.3699 57.0611C71.0541 57.2129 70.7868 57.4315 70.5682 57.717C70.3556 57.9964 70.1947 58.3395 70.0853 58.7464C69.9821 59.1473 69.9305 59.5998 69.9305 60.1039C69.9305 60.6262 69.9882 61.0908 70.1036 61.4977C70.219 61.9047 70.3829 62.2478 70.5955 62.5272C70.8142 62.8066 71.0753 63.0191 71.379 63.1649C71.6887 63.3107 72.0349 63.3835 72.4176 63.3835C72.7941 63.3835 73.1008 63.338 73.3377 63.2469C73.5745 63.1558 73.7719 63.0556 73.9298 62.9463C74.0878 62.8369 74.2214 62.7367 74.3307 62.6456C74.4461 62.5545 74.5676 62.509 74.6951 62.509C74.853 62.509 74.9745 62.5697 75.0595 62.6912L75.6152 63.4109C75.3905 63.6842 75.1415 63.915 74.8682 64.1032C74.5949 64.2915 74.3064 64.4464 74.0027 64.5679C73.6991 64.6833 73.3832 64.7653 73.0553 64.8138C72.7273 64.8685 72.3963 64.8958 72.0623 64.8958C71.4853 64.8958 70.9447 64.7895 70.4406 64.577C69.9426 64.3583 69.5053 64.0455 69.1288 63.6386C68.7583 63.2256 68.4637 62.7246 68.2451 62.1354C68.0325 61.5402 67.9262 60.8631 67.9262 60.1039C67.9262 59.4176 68.0234 58.7829 68.2177 58.1998C68.4121 57.6107 68.6945 57.1036 69.065 56.6784C69.4416 56.2533 69.9062 55.9223 70.4589 55.6854C71.0115 55.4425 71.6493 55.321 72.372 55.321C73.0462 55.321 73.6383 55.4303 74.1485 55.649C74.6647 55.8676 75.1233 56.1774 75.5241 56.5782L75.0048 57.2888ZM83.741 56.2867C83.741 56.4264 83.7167 56.563 83.6681 56.6967C83.6256 56.8303 83.5618 56.9426 83.4768 57.0337L78.7668 63.2378H83.5861V64.7592H76.4984V63.9393C76.4984 63.8482 76.5196 63.7388 76.5621 63.6113C76.6046 63.4838 76.6684 63.3623 76.7534 63.2469L81.4907 56.9882H76.7717V55.4668H83.741V56.2867ZM88.625 67.4011C88.5582 67.5408 88.4762 67.6502 88.3791 67.7291C88.288 67.8081 88.1452 67.8475 87.9509 67.8475H86.5024L88.2151 64.1306L84.4252 55.4668H86.1288C86.2928 55.4668 86.4173 55.5063 86.5024 55.5852C86.5935 55.6581 86.6603 55.7462 86.7028 55.8494L88.9166 61.1242C89.0259 61.4279 89.117 61.7316 89.1899 62.0352C89.2385 61.8773 89.287 61.7224 89.3356 61.5706C89.3903 61.4188 89.448 61.2669 89.5087 61.1151L91.6314 55.8494C91.6739 55.7401 91.7438 55.649 91.8409 55.5761C91.9442 55.5032 92.0565 55.4668 92.178 55.4668H93.745L88.625 67.4011ZM96.9784 51.2761V59.0926H97.3974C97.5311 59.0926 97.6404 59.0744 97.7254 59.038C97.8104 59.0015 97.8985 58.9256 97.9896 58.8102L100.595 55.8312C100.686 55.7097 100.786 55.6186 100.896 55.5579C101.005 55.4971 101.145 55.4668 101.315 55.4668H103.091L99.9574 59.0015C99.7752 59.2384 99.5748 59.4267 99.3561 59.5664C99.4776 59.6514 99.5839 59.7486 99.675 59.8579C99.7661 59.9611 99.8542 60.0796 99.9392 60.2132L103.283 64.7592H101.533C101.376 64.7592 101.239 64.7349 101.124 64.6863C101.014 64.6316 100.917 64.5345 100.832 64.3948L98.1445 60.7507C98.0534 60.611 97.9623 60.5229 97.8712 60.4865C97.7801 60.444 97.6434 60.4227 97.4612 60.4227H96.9784V64.7592H95.0197V51.2761H96.9784Z" fill="#333333"/>
</g>
</g>
</g>
<defs>
<filter id="filter0_d" x="3.00002" y="-16" width="126.531" height="124" filterUnits="userSpaceOnUse" color-interpolation-filters="sRGB">
<feFlood flood-opacity="0" result="BackgroundImageFix"/>
<feColorMatrix in="SourceAlpha" type="matrix" values="0 0 0 0 0 0 0 0 0 0 0 0 0 0 0 0 0 0 127 0"/>
<feOffset dy="2.02449"/>
<feGaussianBlur stdDeviation="1.01224"/>
<feColorMatrix type="matrix" values="0 0 0 0 0 0 0 0 0 0 0 0 0 0 0 0 0 0 0.25 0"/>
<feBlend mode="normal" in2="BackgroundImageFix" result="effect1_dropShadow"/>
<feBlend mode="normal" in="SourceGraphic" in2="effect1_dropShadow" result="shape"/>
</filter>
<clipPath id="clip0">
<rect width="120" height="120" fill="white"/>
</clipPath>
<clipPath id="clip1">
<path d="M5.02451 34.6123C5.02451 6.65991 27.6844 -16 55.6367 -16H76.8939C104.846 -16 127.506 6.65987 127.506 34.6122V53.3387C127.506 81.2911 104.846 103.951 76.8939 103.951H55.6367C27.6844 103.951 5.02451 81.2912 5.02451 53.3388V34.6123Z" fill="white"/>
</clipPath>
</defs>
</svg>
