<svg width="96" height="96" viewBox="0 0 96 96" fill="none" xmlns="http://www.w3.org/2000/svg">
<g clip-path="url(#clip0)">
<g filter="url(#filter0_d)">
<g clip-path="url(#clip1)">
<path d="M77.8323 97.6713C69.7447 103.502 60.3407 106.417 49.62 106.417C43.0371 106.417 37.075 105.401 31.7334 103.37C26.4295 101.301 21.8968 98.4424 18.1351 94.7936C14.3735 91.1072 11.4771 86.7249 9.44577 81.6467C7.41449 76.5685 6.39885 70.9825 6.39885 64.8886C6.39885 58.7572 7.37687 53.1524 9.33292 48.0742C11.289 42.9583 14.0914 38.576 17.7402 34.9272C21.389 31.2408 25.7901 28.4008 30.9435 26.4071C36.0969 24.3759 41.8899 23.3602 48.3222 23.3602C51.5949 23.3602 54.623 23.6235 57.4066 24.1502C60.2278 24.6392 62.8421 25.3351 65.2496 26.2379C67.657 27.1407 69.8764 28.2315 71.9077 29.5105C73.939 30.7894 75.801 32.2189 77.4937 33.7988L73.7133 39.8362C73.1114 40.7766 72.3403 41.3596 71.3999 41.5853C70.4595 41.811 69.4438 41.5853 68.3529 40.9082C67.2621 40.2688 66.096 39.5917 64.8546 38.877C63.6509 38.1622 62.2591 37.504 60.6792 36.9021C59.0993 36.2626 57.2749 35.7548 55.206 35.3786C53.1371 34.9649 50.6921 34.758 47.8709 34.758C43.5826 34.758 39.7081 35.4727 36.2474 36.9021C32.8243 38.2939 29.8902 40.3064 27.4452 42.9395C25.0001 45.535 23.1193 48.6948 21.8027 52.4188C20.4862 56.1429 19.8279 60.2995 19.8279 64.8886C19.8279 69.7412 20.5238 74.0858 21.9156 77.9227C23.3074 81.722 25.2822 84.957 27.8402 87.6277C30.3981 90.2609 33.4826 92.2733 37.0938 93.6651C40.7426 95.0569 44.8051 95.7528 49.2815 95.7528C52.6293 95.7528 55.601 95.3955 58.1965 94.6808C60.8297 93.9661 63.4064 92.9692 65.9267 91.6903V75.5529H54.5854C53.7202 75.5529 53.0431 75.3272 52.5541 74.8758C52.0651 74.3868 51.8206 73.7661 51.8206 73.0138V65.5093H77.8323V97.6713Z" fill="#333333"/>
<path d="M28.2712 52.4313H29.6536C29.7946 52.4313 29.9122 52.4666 30.0062 52.5371C30.105 52.603 30.1708 52.6947 30.2037 52.8122L32.108 59.3222C32.1456 59.4632 32.1786 59.6161 32.2068 59.7806C32.2397 59.9405 32.2726 60.1098 32.3055 60.2885C32.3431 60.1098 32.3807 59.9382 32.4184 59.7736C32.4607 59.609 32.5053 59.4585 32.5524 59.3222L34.7318 52.8122C34.7647 52.7182 34.8305 52.6312 34.9292 52.5512C35.028 52.4713 35.1455 52.4313 35.2819 52.4313H35.7615C35.9073 52.4313 36.0248 52.469 36.1142 52.5442C36.2035 52.6147 36.2717 52.7041 36.3187 52.8122L38.491 59.3222C38.5381 59.4585 38.5804 59.6067 38.618 59.7665C38.6556 59.9217 38.6932 60.0886 38.7308 60.2673C38.7638 60.0933 38.7943 59.9264 38.8225 59.7665C38.8554 59.6067 38.8907 59.4585 38.9283 59.3222L40.8256 52.8122C40.8538 52.7088 40.9173 52.6194 41.016 52.5442C41.1195 52.469 41.2394 52.4313 41.3757 52.4313H42.6665L39.5067 62.5878H38.0185L35.6346 55.2949C35.6063 55.215 35.5781 55.128 35.5499 55.0339C35.5264 54.9399 35.5029 54.8388 35.4794 54.7306C35.4559 54.8388 35.43 54.9399 35.4018 55.0339C35.3736 55.128 35.3477 55.215 35.3242 55.2949L32.9191 62.5878H31.4309L28.2712 52.4313ZM45.3388 55.3936V62.5878H43.8224V55.3936H45.3388ZM45.5927 53.2213C45.5927 53.3576 45.5645 53.487 45.5081 53.6092C45.4563 53.7315 45.3835 53.8396 45.2894 53.9336C45.1954 54.023 45.0849 54.0959 44.9579 54.1523C44.8357 54.204 44.704 54.2299 44.563 54.2299C44.4266 54.2299 44.2973 54.204 44.175 54.1523C44.0575 54.0959 43.954 54.023 43.8647 53.9336C43.7754 53.8396 43.7025 53.7315 43.6461 53.6092C43.5943 53.487 43.5685 53.3576 43.5685 53.2213C43.5685 53.0802 43.5943 52.9486 43.6461 52.8263C43.7025 52.7041 43.7754 52.5983 43.8647 52.5089C43.954 52.4149 44.0575 52.342 44.175 52.2903C44.2973 52.2339 44.4266 52.2056 44.563 52.2056C44.704 52.2056 44.8357 52.2339 44.9579 52.2903C45.0849 52.342 45.1954 52.4149 45.2894 52.5089C45.3835 52.5983 45.4563 52.7041 45.5081 52.8263C45.5645 52.9486 45.5927 53.0802 45.5927 53.2213ZM48.7887 52.1492V62.5878H47.2723V52.1492H48.7887ZM55.7457 56.8042C55.6987 56.8654 55.654 56.9124 55.6117 56.9453C55.5694 56.9782 55.5082 56.9947 55.4283 56.9947C55.3484 56.9947 55.2637 56.9665 55.1744 56.91C55.0898 56.8536 54.9863 56.7925 54.8641 56.7267C54.7465 56.6561 54.6031 56.5927 54.4338 56.5362C54.2645 56.4798 54.053 56.4516 53.799 56.4516C53.4699 56.4516 53.1807 56.5104 52.9315 56.6279C52.687 56.7455 52.4801 56.9147 52.3109 57.1357C52.1463 57.352 52.0217 57.6177 51.937 57.9327C51.8571 58.2431 51.8171 58.5934 51.8171 58.9836C51.8171 59.388 51.8618 59.7477 51.9511 60.0628C52.0405 60.3778 52.1674 60.6435 52.332 60.8598C52.5013 61.076 52.7035 61.2406 52.9386 61.3535C53.1784 61.4663 53.4464 61.5227 53.7426 61.5227C54.0342 61.5227 54.2716 61.4875 54.455 61.4169C54.6384 61.3464 54.7912 61.2688 54.9134 61.1842C55.0357 61.0996 55.1391 61.022 55.2238 60.9514C55.3131 60.8809 55.4071 60.8456 55.5059 60.8456C55.6281 60.8456 55.7222 60.8927 55.788 60.9867L56.2182 61.5439C56.0443 61.7555 55.8515 61.9342 55.6399 62.0799C55.4283 62.2257 55.205 62.3456 54.9699 62.4396C54.7348 62.529 54.4902 62.5925 54.2363 62.6301C53.9824 62.6724 53.7262 62.6935 53.4676 62.6935C53.0209 62.6935 52.6024 62.6113 52.2121 62.4467C51.8265 62.2774 51.488 62.0353 51.1965 61.7202C50.9096 61.4005 50.6816 61.0126 50.5123 60.5565C50.3477 60.0957 50.2655 59.5714 50.2655 58.9836C50.2655 58.4523 50.3407 57.9609 50.4912 57.5095C50.6416 57.0535 50.8603 56.6608 51.1471 56.3317C51.4386 56.0025 51.7983 55.7463 52.2262 55.5629C52.6541 55.3748 53.1478 55.2808 53.7074 55.2808C54.2293 55.2808 54.6877 55.3654 55.0827 55.5347C55.4824 55.704 55.8374 55.9438 56.1477 56.2541L55.7457 56.8042ZM62.5091 56.0284C62.5091 56.1366 62.4903 56.2423 62.4527 56.3458C62.4198 56.4492 62.3704 56.5362 62.3046 56.6068L58.6582 61.4099H62.3892V62.5878H56.902V61.953C56.902 61.8824 56.9184 61.7978 56.9513 61.6991C56.9842 61.6003 57.0336 61.5063 57.0994 61.4169L60.767 56.5715H57.1135V55.3936H62.5091V56.0284ZM66.2903 64.6331C66.2386 64.7413 66.1751 64.8259 66.0999 64.8871C66.0294 64.9482 65.9189 64.9787 65.7684 64.9787H64.647L65.973 62.1011L63.0389 55.3936H64.3578C64.4848 55.3936 64.5812 55.4242 64.647 55.4853C64.7175 55.5417 64.7692 55.6099 64.8022 55.6899L66.516 59.7736C66.6007 60.0087 66.6712 60.2438 66.7276 60.4789C66.7653 60.3566 66.8029 60.2367 66.8405 60.1192C66.8828 60.0016 66.9275 59.8841 66.9745 59.7665L68.6179 55.6899C68.6508 55.6052 68.7048 55.5347 68.7801 55.4783C68.86 55.4218 68.947 55.3936 69.041 55.3936H70.2542L66.2903 64.6331ZM72.7575 52.1492V58.2007H73.0819C73.1853 58.2007 73.27 58.1866 73.3358 58.1584C73.4016 58.1302 73.4698 58.0714 73.5403 57.9821L75.5575 55.6758C75.628 55.5817 75.7056 55.5112 75.7903 55.4642C75.8749 55.4171 75.9831 55.3936 76.1147 55.3936H77.4901L75.0638 58.1302C74.9227 58.3136 74.7676 58.4594 74.5983 58.5675C74.6923 58.6333 74.7746 58.7086 74.8452 58.7932C74.9157 58.8731 74.9839 58.9648 75.0497 59.0683L77.6382 62.5878H76.284C76.1617 62.5878 76.0559 62.5689 75.9666 62.5313C75.882 62.489 75.8067 62.4138 75.7409 62.3056L73.6602 59.4844C73.5897 59.3763 73.5192 59.3081 73.4487 59.2799C73.3781 59.247 73.2723 59.2305 73.1313 59.2305H72.7575V62.5878H71.241V52.1492H72.7575Z" fill="#333333"/>
</g>
</g>
</g>
<defs>
<filter id="filter0_d" x="5.48363e-06" y="0" width="97.9592" height="96" filterUnits="userSpaceOnUse" color-interpolation-filters="sRGB">
<feFlood flood-opacity="0" result="BackgroundImageFix"/>
<feColorMatrix in="SourceAlpha" type="matrix" values="0 0 0 0 0 0 0 0 0 0 0 0 0 0 0 0 0 0 127 0"/>
<feOffset dy="1.56735"/>
<feGaussianBlur stdDeviation="0.783673"/>
<feColorMatrix type="matrix" values="0 0 0 0 0 0 0 0 0 0 0 0 0 0 0 0 0 0 0.25 0"/>
<feBlend mode="normal" in2="BackgroundImageFix" result="effect1_dropShadow"/>
<feBlend mode="normal" in="SourceGraphic" in2="effect1_dropShadow" result="shape"/>
</filter>
<clipPath id="clip0">
<rect width="96" height="96" fill="white"/>
</clipPath>
<clipPath id="clip1">
<path d="M1.56735 39.1837C1.56735 17.5431 19.1105 0 40.751 0H57.2082C78.8487 0 96.3918 17.5431 96.3918 39.1837V53.6816C96.3918 75.3222 78.8487 92.8653 57.2082 92.8653H40.751C19.1105 92.8653 1.56735 75.3222 1.56735 53.6816V39.1837Z" fill="white"/>
</clipPath>
</defs>
</svg>
