<svg width="50" height="50" viewBox="0 0 50 50" fill="none" xmlns="http://www.w3.org/2000/svg">
<g clip-path="url(#clip0)">
<g filter="url(#filter0_d)">
<g clip-path="url(#clip1)">
<path d="M40.5376 51.058C36.3254 54.0947 31.4274 55.6131 25.8438 55.6131C22.4152 55.6131 19.3099 55.0841 16.5278 54.0261C13.7654 52.9486 11.4046 51.4596 9.44539 49.5592C7.4862 47.6392 5.97763 45.3567 4.91967 42.7118C3.86171 40.0669 3.33273 37.1575 3.33273 33.9837C3.33273 30.7902 3.84212 27.871 4.8609 25.2261C5.87967 22.5616 7.33926 20.2792 9.23967 18.3788C11.1401 16.4588 13.4323 14.9796 16.1164 13.9412C18.8005 12.8833 21.8176 12.3543 25.1678 12.3543C26.8723 12.3543 28.4495 12.4914 29.8993 12.7657C31.3687 13.0204 32.7303 13.3829 33.9842 13.8531C35.238 14.3233 36.394 14.8914 37.4519 15.5575C38.5099 16.2237 39.4797 16.9682 40.3613 17.791L38.3923 20.9355C38.0789 21.4253 37.6772 21.729 37.1874 21.8465C36.6976 21.9641 36.1687 21.8465 35.6005 21.4939C35.0323 21.1608 34.425 20.8082 33.7784 20.4359C33.1515 20.0637 32.4266 19.7208 31.6038 19.4073C30.7809 19.0743 29.8307 18.8098 28.7531 18.6139C27.6756 18.3984 26.4021 18.2906 24.9327 18.2906C22.6993 18.2906 20.6813 18.6629 18.8789 19.4073C17.096 20.1322 15.5678 21.1804 14.2944 22.5518C13.0209 23.9037 12.0413 25.5494 11.3556 27.489C10.6699 29.4286 10.327 31.5935 10.327 33.9837C10.327 36.511 10.6895 38.7739 11.4144 40.7722C12.1393 42.751 13.1678 44.4359 14.5001 45.8269C15.8323 47.1984 17.4389 48.2465 19.3197 48.9714C21.2201 49.6963 23.336 50.0588 25.6674 50.0588C27.4111 50.0588 28.9589 49.8726 30.3107 49.5004C31.6821 49.1282 33.0242 48.609 34.3368 47.9429V39.538H28.4299C27.9793 39.538 27.6266 39.4204 27.3719 39.1853C27.1172 38.9306 26.9899 38.6073 26.9899 38.2155V34.3069H40.5376V51.058Z" fill="#333333"/>
<path d="M14.7246 27.0163H15.4446C15.518 27.0163 15.5793 27.0347 15.6282 27.0714C15.6797 27.1057 15.7139 27.1535 15.7311 27.2147L16.7229 30.6053C16.7425 30.6788 16.7597 30.7584 16.7744 30.8441C16.7915 30.9273 16.8086 31.0155 16.8258 31.1086C16.8454 31.0155 16.865 30.9261 16.8846 30.8404C16.9066 30.7547 16.9299 30.6763 16.9544 30.6053L18.0895 27.2147C18.1066 27.1657 18.1409 27.1204 18.1923 27.0788C18.2437 27.0371 18.305 27.0163 18.376 27.0163H18.6258C18.7017 27.0163 18.7629 27.0359 18.8095 27.0751C18.856 27.1118 18.8915 27.1584 18.916 27.2147L20.0474 30.6053C20.0719 30.6763 20.0939 30.7535 20.1135 30.8367C20.1331 30.9176 20.1527 31.0045 20.1723 31.0976C20.1895 31.0069 20.2054 30.92 20.2201 30.8367C20.2372 30.7535 20.2556 30.6763 20.2752 30.6053L21.2633 27.2147C21.278 27.1608 21.3111 27.1143 21.3625 27.0751C21.4164 27.0359 21.4788 27.0163 21.5499 27.0163H22.2221L20.5764 32.3061H19.8013L18.5597 28.5078C18.545 28.4661 18.5303 28.4208 18.5156 28.3718C18.5033 28.3229 18.4911 28.2702 18.4788 28.2139C18.4666 28.2702 18.4531 28.3229 18.4384 28.3718C18.4237 28.4208 18.4103 28.4661 18.398 28.5078L17.1454 32.3061H16.3703L14.7246 27.0163ZM23.614 28.5592V32.3061H22.8242V28.5592H23.614ZM23.7462 27.4278C23.7462 27.4988 23.7315 27.5661 23.7021 27.6298C23.6752 27.6935 23.6372 27.7498 23.5882 27.7988C23.5393 27.8453 23.4817 27.8833 23.4156 27.9127C23.3519 27.9396 23.2833 27.9531 23.2099 27.9531C23.1389 27.9531 23.0715 27.9396 23.0078 27.9127C22.9466 27.8833 22.8927 27.8453 22.8462 27.7988C22.7997 27.7498 22.7617 27.6935 22.7323 27.6298C22.7054 27.5661 22.6919 27.4988 22.6919 27.4278C22.6919 27.3543 22.7054 27.2857 22.7323 27.222C22.7617 27.1584 22.7997 27.1033 22.8462 27.0567C22.8927 27.0078 22.9466 26.9698 23.0078 26.9429C23.0715 26.9135 23.1389 26.8988 23.2099 26.8988C23.2833 26.8988 23.3519 26.9135 23.4156 26.9429C23.4817 26.9698 23.5393 27.0078 23.5882 27.0567C23.6372 27.1033 23.6752 27.1584 23.7021 27.222C23.7315 27.2857 23.7462 27.3543 23.7462 27.4278ZM25.4108 26.8694V32.3061H24.621V26.8694H25.4108ZM29.0342 29.2939C29.0097 29.3257 28.9865 29.3502 28.9644 29.3673C28.9424 29.3845 28.9105 29.3931 28.8689 29.3931C28.8273 29.3931 28.7832 29.3784 28.7367 29.349C28.6926 29.3196 28.6387 29.2878 28.575 29.2535C28.5138 29.2167 28.4391 29.1837 28.3509 29.1543C28.2628 29.1249 28.1526 29.1102 28.0203 29.1102C27.8489 29.1102 27.6983 29.1408 27.5685 29.202C27.4412 29.2633 27.3334 29.3514 27.2452 29.4665C27.1595 29.5792 27.0946 29.7176 27.0505 29.8816C27.0089 30.0433 26.9881 30.2257 26.9881 30.429C26.9881 30.6396 27.0114 30.8269 27.0579 30.991C27.1044 31.1551 27.1705 31.2935 27.2563 31.4061C27.3444 31.5188 27.4497 31.6045 27.5722 31.6633C27.6971 31.722 27.8367 31.7514 27.9909 31.7514C28.1428 31.7514 28.2665 31.7331 28.362 31.6963C28.4575 31.6596 28.5371 31.6192 28.6007 31.5751C28.6644 31.531 28.7183 31.4906 28.7624 31.4539C28.8089 31.4171 28.8579 31.3988 28.9093 31.3988C28.973 31.3988 29.022 31.4233 29.0563 31.4722L29.2803 31.7624C29.1897 31.8727 29.0893 31.9657 28.9791 32.0416C28.8689 32.1176 28.7526 32.18 28.6301 32.229C28.5077 32.2755 28.3803 32.3086 28.2481 32.3282C28.1158 32.3502 27.9824 32.3612 27.8477 32.3612C27.615 32.3612 27.3971 32.3184 27.1938 32.2327C26.993 32.1445 26.8167 32.0184 26.6648 31.8543C26.5154 31.6878 26.3967 31.4857 26.3085 31.2482C26.2228 31.0082 26.1799 30.7351 26.1799 30.429C26.1799 30.1522 26.2191 29.8963 26.2975 29.6612C26.3758 29.4237 26.4897 29.2192 26.6391 29.0478C26.7909 28.8763 26.9783 28.7429 27.2012 28.6473C27.424 28.5494 27.6812 28.5004 27.9726 28.5004C28.2444 28.5004 28.4832 28.5445 28.6889 28.6327C28.8971 28.7208 29.082 28.8457 29.2436 29.0073L29.0342 29.2939ZM32.5568 28.8898C32.5568 28.9461 32.547 29.0012 32.5275 29.0551C32.5103 29.109 32.4846 29.1543 32.4503 29.191L30.5511 31.6927H32.4944V32.3061H29.6364V31.9755C29.6364 31.9388 29.645 31.8947 29.6621 31.8433C29.6793 31.7918 29.705 31.7429 29.7393 31.6963L31.6495 29.1727H29.7466V28.5592H32.5568V28.8898ZM34.5262 33.3714C34.4993 33.4278 34.4662 33.4718 34.427 33.5037C34.3903 33.5355 34.3328 33.5514 34.2544 33.5514H33.6703L34.3609 32.0527L32.8328 28.5592H33.5197C33.5858 28.5592 33.636 28.5751 33.6703 28.6069C33.707 28.6363 33.734 28.6718 33.7511 28.7135L34.6438 30.8404C34.6879 30.9629 34.7246 31.0853 34.754 31.2078C34.7736 31.1441 34.7932 31.0816 34.8128 31.0204C34.8348 30.9592 34.8581 30.898 34.8826 30.8367L35.7385 28.7135C35.7556 28.6694 35.7838 28.6327 35.823 28.6033C35.8646 28.5739 35.9099 28.5592 35.9589 28.5592H36.5907L34.5262 33.3714ZM37.8945 26.8694V30.0212H38.0635C38.1174 30.0212 38.1614 30.0139 38.1957 29.9992C38.23 29.9845 38.2655 29.9539 38.3023 29.9073L39.3529 28.7061C39.3896 28.6571 39.43 28.6204 39.4741 28.5959C39.5182 28.5714 39.5745 28.5592 39.6431 28.5592H40.3594L39.0957 29.9845C39.0223 30.08 38.9414 30.1559 38.8533 30.2122C38.9023 30.2465 38.9451 30.2857 38.9819 30.3298C39.0186 30.3714 39.0541 30.4192 39.0884 30.4731L40.4365 32.3061H39.7312C39.6676 32.3061 39.6125 32.2963 39.5659 32.2767C39.5219 32.2547 39.4827 32.2155 39.4484 32.1592L38.3647 30.6898C38.328 30.6335 38.2912 30.598 38.2545 30.5833C38.2178 30.5661 38.1627 30.5576 38.0892 30.5576H37.8945V32.3061H37.1047V26.8694H37.8945Z" fill="#333333"/>
</g>
</g>
</g>
<defs>
<filter id="filter0_d" x="3.45707e-06" y="0" width="51.0204" height="50" filterUnits="userSpaceOnUse" color-interpolation-filters="sRGB">
<feFlood flood-opacity="0" result="BackgroundImageFix"/>
<feColorMatrix in="SourceAlpha" type="matrix" values="0 0 0 0 0 0 0 0 0 0 0 0 0 0 0 0 0 0 127 0"/>
<feOffset dy="0.816326"/>
<feGaussianBlur stdDeviation="0.408163"/>
<feColorMatrix type="matrix" values="0 0 0 0 0 0 0 0 0 0 0 0 0 0 0 0 0 0 0.25 0"/>
<feBlend mode="normal" in2="BackgroundImageFix" result="effect1_dropShadow"/>
<feBlend mode="normal" in="SourceGraphic" in2="effect1_dropShadow" result="shape"/>
</filter>
<clipPath id="clip0">
<rect width="50" height="50" fill="white"/>
</clipPath>
<clipPath id="clip1">
<path d="M0.81633 20.4082C0.81633 9.13706 9.95338 0 21.2245 0H29.7959C41.067 0 50.2041 9.13705 50.2041 20.4082V27.9592C50.2041 39.2303 41.067 48.3673 29.7959 48.3673H21.2245C9.9534 48.3673 0.81633 39.2303 0.81633 27.9592V20.4082Z" fill="white"/>
</clipPath>
</defs>
</svg>
